<?xml version="1.0" encoding="UTF-8"?>
<!-- Created with Inkscape (http://www.inkscape.org/) -->
<svg version="1.1" viewBox="0 0 600 100" xmlns="http://www.w3.org/2000/svg" xmlns:cc="http://creativecommons.org/ns#" xmlns:dc="http://purl.org/dc/elements/1.1/" xmlns:rdf="http://www.w3.org/1999/02/22-rdf-syntax-ns#">
<metadata>
<rdf:RDF>
<cc:Work rdf:about="">
<dc:format>image/svg+xml</dc:format>
<dc:type rdf:resource="http://purl.org/dc/dcmitype/StillImage"/>
<dc:title/>
</cc:Work>
</rdf:RDF>
</metadata>
<rect width="600" height="100" fill="#173f4f" fill-rule="evenodd" style="paint-order:normal"/>
<flowRoot transform="matrix(.42655 0 0 .42655 171.56 32.171)" fill="#ffffff" font-family="'Open Sans Condensed'" font-size="40px" letter-spacing="0px" word-spacing="0px" style="line-height:2.25" xml:space="preserve"><flowRegion font-family="'Open Sans Condensed'" style="line-height:2.25"><rect x="-205.32" y="1.9158" width="340.52" height="188.7" fill="#fff"/></flowRegion><flowPara style="line-height:2.25">openSUSE.org</flowPara></flowRoot>
<path d="m46.278 58.541 19.176-14.924-19.05-14.597-19.177 14.924z" fill="#fff" stroke-width=".7611"/>
<path d="m46.294 64.145-21.208-16.251-5.0864 3.9585 26.609 20.389 26.403-20.548-5.4008-4.1373z" fill="#fff" stroke-width=".7611"/>
<g transform="translate(0 -952.36)" font-family="'Strenuous 3D'" font-size="40px" letter-spacing="0px" word-spacing="0px">
<flowRoot transform="matrix(.32226 0 0 .3219 466.05 957.51)" fill="#ffffff" style="line-height:1.25" xml:space="preserve"><flowRegion fill="#ffffff"><rect x="-2.3168" y="-2.7462" width="362.12" height="59" fill="#fff"/></flowRegion><flowPara font-family="'Source Sans Pro'" font-weight="300" text-align="center" text-anchor="middle">@TOPC@</flowPara></flowRoot>
<flowRoot transform="matrix(.32226 0 0 .3219 465.68 969.52)" fill="#ffffff" style="line-height:1.25" xml:space="preserve"><flowRegion fill="#ffffff"><rect x="-1.177" y="-2.7462" width="362.12" height="61.494" fill="#fff"/></flowRegion><flowPara font-family="'Source Sans Pro'" font-weight="300" text-align="center" text-anchor="middle">@TOP@</flowPara></flowRoot>
<flowRoot transform="matrix(.86761 0 0 .86664 368.2 978.32)" fill="#73ba25" style="line-height:1.25" xml:space="preserve"><flowRegion><rect x="111.91" y=".73575" width="134.5" height="55.679" fill="#73ba25"/></flowRegion><flowPara font-family="'Source Sans Pro'" text-align="center" text-anchor="middle">@@</flowPara></flowRoot>
<flowRoot transform="matrix(.32226 0 0 .3219 466.81 1019)" fill="#ffffff" style="line-height:1.25" xml:space="preserve"><flowRegion fill="#ffffff"><rect x="-4.6815" y="-5.0976" width="362.12" height="56.649" fill="#fff"/></flowRegion><flowPara font-family="'Source Sans Pro'" font-weight="600" text-align="center" text-anchor="middle">@BOTTOM@</flowPara></flowRoot>
<flowRoot transform="matrix(.32226 0 0 .3219 466.44 1031)" fill="#ffffff" style="line-height:1.25" xml:space="preserve"><flowRegion fill="#ffffff"><rect x="-3.5416" y="-.39472" width="362.12" height="56.791" fill="#fff"/></flowRegion><flowPara font-family="'Source Sans Pro'" font-weight="600" text-align="center" text-anchor="middle">@BOTTOMC@</flowPara></flowRoot>
</g>
</svg>
