<?xml version="1.0" encoding="UTF-8"?>
<!-- Created with Inkscape (http://www.inkscape.org/) -->
<svg version="1.1" viewBox="0 0 600 100" xmlns="http://www.w3.org/2000/svg" xmlns:cc="http://creativecommons.org/ns#" xmlns:dc="http://purl.org/dc/elements/1.1/" xmlns:rdf="http://www.w3.org/1999/02/22-rdf-syntax-ns#">
<metadata>
<rdf:RDF>
<cc:Work rdf:about="">
<dc:format>image/svg+xml</dc:format>
<dc:type rdf:resource="http://purl.org/dc/dcmitype/StillImage"/>
<dc:title/>
</cc:Work>
</rdf:RDF>
</metadata>
<g transform="translate(0 -952.36)">
<rect y="952.36" width="600" height="100" fill="#173f4f" fill-rule="evenodd" style="paint-order:normal"/>
<flowRoot transform="matrix(.9457 0 0 .9457 237.14 975.86)" fill="#ffffff" font-family="'Open Sans Condensed'" font-size="40px" letter-spacing="0px" word-spacing="0px" style="line-height:2.25" xml:space="preserve"><flowRegion font-family="'Open Sans Condensed'" style="line-height:2.25"><rect x="-162.39" y="-5.7761" width="162.01" height="88.37" fill="#fff"/></flowRegion><flowPara style="line-height:2.25">Leap ##.#</flowPara></flowRoot>
<g transform="matrix(.7611 0 0 .7611 20 981.38)" fill="#fff">
<path d="M 34.526,38.787 59.721,19.179 34.691,0 9.495,19.608 Z"/>
<path d="M 34.548,46.15 6.683,24.798 0,29.999 34.961,56.788 69.652,29.79 62.556,24.354 Z"/>
</g>
<flowRoot transform="matrix(.60559 0 0 .60559 377.25 976.81)" fill="#ffffff" font-family="'Strenuous 3D'" font-size="40px" letter-spacing="0px" word-spacing="0px" style="line-height:1.25" xml:space="preserve"><flowRegion fill="#ffffff"><rect x="-1.177" y="-2.7462" width="362.12" height="61.494" fill="#fff"/></flowRegion><flowPara font-family="'Source Sans Pro'" font-weight="300" text-align="center" text-anchor="middle">@TOP@</flowPara></flowRoot>
<flowRoot transform="matrix(.51344 0 0 .51344 396.41 1002.5)" fill="#ffffff" font-family="'Strenuous 3D'" font-size="40px" letter-spacing="0px" word-spacing="0px" style="line-height:1.25" xml:space="preserve"><flowRegion fill="#ffffff"><rect x="-4.6815" y="-5.0976" width="362.12" height="56.649" fill="#fff"/></flowRegion><flowPara font-family="'Source Sans Pro'" font-weight="600" text-align="center" text-anchor="middle">@BOTTOM@</flowPara></flowRoot>
<flowRoot transform="matrix(.42655 0 0 .42655 172.84 966.8)" fill="#ffffff" font-family="'Open Sans Condensed'" font-size="40px" letter-spacing="0px" word-spacing="0px" style="line-height:2.25" xml:space="preserve"><flowRegion font-family="'Open Sans Condensed'" style="line-height:2.25"><rect x="-205.32" y="1.9158" width="340.52" height="188.7" fill="#fff"/></flowRegion><flowPara style="line-height:2.25">openSUSE</flowPara></flowRoot>
</g>
</svg>
