<?xml version="1.0" encoding="UTF-8"?>
<!-- Created with Inkscape (http://www.inkscape.org/) -->
<svg version="1.1" viewBox="0 0 400 400" xmlns="http://www.w3.org/2000/svg" xmlns:cc="http://creativecommons.org/ns#" xmlns:dc="http://purl.org/dc/elements/1.1/" xmlns:rdf="http://www.w3.org/1999/02/22-rdf-syntax-ns#">
<metadata>
<rdf:RDF>
<cc:Work rdf:about="">
<dc:format>image/svg+xml</dc:format>
<dc:type rdf:resource="http://purl.org/dc/dcmitype/StillImage"/>
<dc:title/>
</cc:Work>
</rdf:RDF>
</metadata>
<g transform="translate(0 -652.36)">
<rect y="652.36" width="400" height="400" fill="#173f4f" fill-rule="evenodd" style="paint-order:normal"/>
<flowRoot transform="matrix(.87558 0 0 .87558 229.11 660.58)" fill="#ffffff" font-family="'Open Sans Condensed'" font-size="40px" letter-spacing="0px" word-spacing="0px" style="line-height:2.25" xml:space="preserve"><flowRegion font-family="'Open Sans Condensed'" style="line-height:2.25"><rect x="-227.78" y=".029238" width="386.56" height="98.346" fill="#fff"/></flowRegion><flowPara text-align="end" text-anchor="end" style="line-height:2.25">openSUSE.org</flowPara></flowRoot>
<g transform="matrix(.4741 0 0 .4741 31.044 683.13)" fill="#fff">
<path d="M 34.526,38.787 59.721,19.179 34.691,0 9.495,19.608 Z"/>
<path d="M 34.548,46.15 6.683,24.798 0,29.999 34.961,56.788 69.652,29.79 62.556,24.354 Z"/>
</g>
<flowRoot transform="matrix(.93467 0 0 .93467 32.935 743.39)" fill="#ffffff" font-family="'Strenuous 3D'" font-size="40px" letter-spacing="0px" word-spacing="0px" style="line-height:1.25" xml:space="preserve"><flowRegion fill="#ffffff"><rect x="-2.3168" y="-2.7462" width="362.12" height="59" fill="#fff"/></flowRegion><flowPara font-family="'Source Sans Pro'" font-weight="300" text-align="center" text-anchor="middle">@TOPC@</flowPara></flowRoot>
<flowRoot transform="matrix(.93467 0 0 .93467 31.869 778.26)" fill="#ffffff" font-family="'Strenuous 3D'" font-size="40px" letter-spacing="0px" word-spacing="0px" style="line-height:1.25" xml:space="preserve"><flowRegion fill="#ffffff"><rect x="-1.177" y="-2.7462" width="362.12" height="61.494" fill="#fff"/></flowRegion><flowPara font-family="'Source Sans Pro'" font-weight="300" text-align="center" text-anchor="middle">@TOP@</flowPara></flowRoot>
<flowRoot transform="matrix(2.5164 0 0 2.5164 -250.85 803.81)" fill="#73ba25" font-family="'Strenuous 3D'" font-size="40px" letter-spacing="0px" word-spacing="0px" style="line-height:1.25" xml:space="preserve"><flowRegion><rect x="111.91" y=".73575" width="134.5" height="55.679" fill="#73ba25"/></flowRegion><flowPara font-family="'Source Sans Pro'" text-align="center" text-anchor="middle">@@</flowPara></flowRoot>
<flowRoot transform="matrix(.93467 0 0 .93467 35.145 922.01)" fill="#ffffff" font-family="'Strenuous 3D'" font-size="40px" letter-spacing="0px" word-spacing="0px" style="line-height:1.25" xml:space="preserve"><flowRegion fill="#ffffff"><rect x="-4.6815" y="-5.0976" width="362.12" height="56.649" fill="#fff"/></flowRegion><flowPara font-family="'Source Sans Pro'" font-weight="600" text-align="center" text-anchor="middle">@BOTTOM@</flowPara></flowRoot>
<flowRoot transform="matrix(.93467 0 0 .93467 34.08 956.88)" fill="#ffffff" font-family="'Strenuous 3D'" font-size="40px" letter-spacing="0px" word-spacing="0px" style="line-height:1.25" xml:space="preserve"><flowRegion fill="#ffffff"><rect x="-3.5416" y="-.39472" width="362.12" height="56.791" fill="#fff"/></flowRegion><flowPara font-family="'Source Sans Pro'" font-weight="600" text-align="center" text-anchor="middle">@BOTTOMC@</flowPara></flowRoot>
</g>
</svg>
