<?xml version="1.0" encoding="UTF-8"?>
<!-- Created with Inkscape (http://www.inkscape.org/) -->
<svg version="1.1" viewBox="0 0 256 256" xmlns="http://www.w3.org/2000/svg" xmlns:cc="http://creativecommons.org/ns#" xmlns:dc="http://purl.org/dc/elements/1.1/" xmlns:rdf="http://www.w3.org/1999/02/22-rdf-syntax-ns#">
<metadata>
<rdf:RDF>
<cc:Work rdf:about="">
<dc:format>image/svg+xml</dc:format>
<dc:type rdf:resource="http://purl.org/dc/dcmitype/StillImage"/>
<dc:title/>
</cc:Work>
</rdf:RDF>
</metadata>
<g transform="translate(0 -796.36)">
<rect y="796.36" width="256" height="256" fill="#173f4f" fill-rule="evenodd" style="paint-order:normal"/>
<flowRoot transform="matrix(.56037 0 0 .56037 146.63 801.62)" fill="#ffffff" font-family="'Open Sans Condensed'" font-size="40px" letter-spacing="0px" word-spacing="0px" style="line-height:2.25" xml:space="preserve"><flowRegion font-family="'Open Sans Condensed'" style="line-height:2.25"><rect x="-227.78" y=".029238" width="386.56" height="98.346" fill="#fff"/></flowRegion><flowPara text-align="end" text-anchor="end" style="line-height:2.25">openSUSE.org</flowPara></flowRoot>
<g transform="matrix(.30342 0 0 .30342 19.868 816.05)" fill="#fff">
<path d="M 34.526,38.787 59.721,19.179 34.691,0 9.495,19.608 Z"/>
<path d="M 34.548,46.15 6.683,24.798 0,29.999 34.961,56.788 69.652,29.79 62.556,24.354 Z"/>
</g>
<flowRoot transform="matrix(.59819 0 0 .59819 21.078 854.62)" fill="#ffffff" font-family="'Strenuous 3D'" font-size="40px" letter-spacing="0px" word-spacing="0px" style="line-height:1.25" xml:space="preserve"><flowRegion fill="#ffffff"><rect x="-2.3168" y="-2.7462" width="362.12" height="59" fill="#fff"/></flowRegion><flowPara font-family="'Source Sans Pro'" font-weight="300" text-align="center" text-anchor="middle">@TOPC@</flowPara></flowRoot>
<flowRoot transform="matrix(.59819 0 0 .59819 20.396 876.94)" fill="#ffffff" font-family="'Strenuous 3D'" font-size="40px" letter-spacing="0px" word-spacing="0px" style="line-height:1.25" xml:space="preserve"><flowRegion fill="#ffffff"><rect x="-1.177" y="-2.7462" width="362.12" height="61.494" fill="#fff"/></flowRegion><flowPara font-family="'Source Sans Pro'" font-weight="300" text-align="center" text-anchor="middle">@TOP@</flowPara></flowRoot>
<flowRoot transform="matrix(1.6105 0 0 1.6105 -160.54 893.29)" fill="#73ba25" font-family="'Strenuous 3D'" font-size="40px" letter-spacing="0px" word-spacing="0px" style="line-height:1.25" xml:space="preserve"><flowRegion><rect x="111.91" y=".73575" width="134.5" height="55.679" fill="#73ba25"/></flowRegion><flowPara font-family="'Source Sans Pro'" text-align="center" text-anchor="middle">@@</flowPara></flowRoot>
<flowRoot transform="matrix(.59819 0 0 .59819 22.493 968.94)" fill="#ffffff" font-family="'Strenuous 3D'" font-size="40px" letter-spacing="0px" word-spacing="0px" style="line-height:1.25" xml:space="preserve"><flowRegion fill="#ffffff"><rect x="-4.6815" y="-5.0976" width="362.12" height="56.649" fill="#fff"/></flowRegion><flowPara font-family="'Source Sans Pro'" font-weight="600" text-align="center" text-anchor="middle">@BOTTOM@</flowPara></flowRoot>
<flowRoot transform="matrix(.59819 0 0 .59819 21.811 991.25)" fill="#ffffff" font-family="'Strenuous 3D'" font-size="40px" letter-spacing="0px" word-spacing="0px" style="line-height:1.25" xml:space="preserve"><flowRegion fill="#ffffff"><rect x="-3.5416" y="-.39472" width="362.12" height="56.791" fill="#fff"/></flowRegion><flowPara font-family="'Source Sans Pro'" font-weight="600" text-align="center" text-anchor="middle">@BOTTOMC@</flowPara></flowRoot>
</g>
</svg>
