<?xml version="1.0" encoding="UTF-8" standalone="no"?>
<svg
   viewBox="0 0 130 130"
   preserveAspectRatio="xMinYMin slice"
   version="1.1"
   id="svg5"
   sodipodi:docname="square-label-outnow.svg"
   inkscape:version="1.4.2 (ebf0e940d0, 2025-05-08)"
   xmlns:inkscape="http://www.inkscape.org/namespaces/inkscape"
   xmlns:sodipodi="http://sodipodi.sourceforge.net/DTD/sodipodi-0.dtd"
   xmlns="http://www.w3.org/2000/svg"
   xmlns:svg="http://www.w3.org/2000/svg">
  <defs
     id="defs5" />
  <sodipodi:namedview
     id="namedview5"
     pagecolor="#ffffff"
     bordercolor="#000000"
     borderopacity="0.25"
     inkscape:showpageshadow="2"
     inkscape:pageopacity="0.0"
     inkscape:pagecheckerboard="0"
     inkscape:deskcolor="#d1d1d1"
     inkscape:zoom="6.1538462"
     inkscape:cx="65"
     inkscape:cy="65"
     inkscape:window-width="1920"
     inkscape:window-height="1011"
     inkscape:window-x="0"
     inkscape:window-y="0"
     inkscape:window-maximized="1"
     inkscape:current-layer="svg5" />
  <rect
     style="fill:#173f4f"
     height="130"
     width="130"
     y="0"
     x="0"
     id="rect1" />
  <text
     xml:space="preserve"
     style="text-align:center;text-anchor:middle"
     x="65"
     y="65"
     id="text2"><tspan
       x="65"
       y="65"
       style="font-size:10.66666666px;font-family:'Source Sans Pro';-inkscape-font-specification:'Source Sans Pro';fill:#f9f9f9"
       id="tspan2">@TOP@</tspan></text>
  <text
     xml:space="preserve"
     style="text-align:center;text-anchor:middle"
     x="65"
     y="77"
     id="text3"><tspan
       x="65"
       y="77"
       style="font-size:10.66666666px;font-family:'Source Sans Pro';-inkscape-font-specification:'Source Sans Pro';fill:#ffffff;font-weight:bold"
       id="tspan3">@BOTTOM@</tspan></text>
  <text
     xml:space="preserve"
     style="text-align:start;text-anchor:start;fill:#ffffff"
     x="26"
     y="19"
     id="text4"><tspan
       x="26"
       y="19"
       style="font-weight:bold;font-stretch:condensed;font-size:10.66666666px;font-family:'Open Sans Condensed';-inkscape-font-specification:'Open Sans Condensed, Bold Condensed';text-align:start;text-anchor:start;fill:#ffffff"
       id="tspan4">openSUSE Leap ##.#</tspan></text>
  <text
     y="120"
     x="120"
     style="font-size:9.33333px;text-align:end;text-anchor:end"
     xml:space="preserve"
     id="text5"><tspan
       style="font-family:'Source Sans Pro';-inkscape-font-specification:'Source Sans Pro';fill:#ffffff"
       y="120"
       x="120"
       id="tspan5">get.openSUSE.org</tspan></text>
  <g
     id="svg5-3"
     transform="matrix(0.23473743,0,0,0.23473743,4.672038,5.9171069)">
    <path
       d="m 64.222088,20.164206 a 1.3980769,1.3980769 0 0 0 -0.922817,0.404092 L 47.922065,35.945505 a 1.3980769,1.3980769 0 0 0 0,1.976671 l 15.377206,15.377206 a 1.3980769,1.3980769 0 0 0 1.976668,0 L 80.653145,37.922176 a 1.3980769,1.3980769 0 0 0 0,-1.976671 L 65.275939,20.568298 a 1.3980769,1.3980769 0 0 0 -1.053926,-0.404092 z m 0.06554,3.369191 L 77.688172,36.933935 64.287634,50.33447 50.887099,36.933935 Z M 47.5125,45.320569 v 1.397927 a 1.3979277,1.3979277 0 0 0 0.409576,0.988374 l 15.377206,15.377205 a 1.3980769,1.3980769 0 0 0 1.976668,0 L 80.653155,47.70687 a 1.3979277,1.3979277 0 0 0 0.409537,-0.988374 1.3979277,1.3979277 0 0 0 0,-0.06551 V 45.320594 H 79.664768 A 1.3979277,1.3979277 0 0 0 78.67641,45.730151 L 64.287634,60.118927 49.898855,45.730151 a 1.3979277,1.3979277 0 0 0 -0.988389,-0.404097 v -0.0054 z"
       color="#000000"
       color-rendering="auto"
       dominant-baseline="auto"
       fill="#fbc75d"
       image-rendering="auto"
       shape-rendering="auto"
       solid-color="#000000"
       stop-color="#000000"
       style="font-variant-ligatures:normal;font-variant-position:normal;font-variant-caps:normal;font-variant-numeric:normal;font-variant-alternates:normal;font-variant-east-asian:normal;font-feature-settings:normal;font-variation-settings:normal;text-indent:0;text-decoration-line:none;text-decoration-style:solid;text-decoration-color:#000000;text-transform:none;text-orientation:mixed;white-space:normal;shape-padding:0;shape-margin:0;inline-size:0;isolation:auto;mix-blend-mode:normal;fill:#ffffff;stroke-width:0.18639"
       id="path1-3" />
  </g>
</svg>
