<?xml version="1.0" encoding="UTF-8" standalone="no"?>
<svg
   viewBox="0 0 130 130"
   preserveAspectRatio="xMinYMin slice"
   version="1.1"
   id="svg8"
   sodipodi:docname="square-label.svg"
   inkscape:version="1.4.2 (ebf0e940d0, 2025-05-08)"
   xmlns:inkscape="http://www.inkscape.org/namespaces/inkscape"
   xmlns:sodipodi="http://sodipodi.sourceforge.net/DTD/sodipodi-0.dtd"
   xmlns="http://www.w3.org/2000/svg"
   xmlns:svg="http://www.w3.org/2000/svg">
  <defs
     id="defs8" />
  <sodipodi:namedview
     id="namedview8"
     pagecolor="#ffffff"
     bordercolor="#000000"
     borderopacity="0.25"
     inkscape:showpageshadow="2"
     inkscape:pageopacity="0.0"
     inkscape:pagecheckerboard="0"
     inkscape:deskcolor="#d1d1d1"
     inkscape:zoom="6.1538462"
     inkscape:cx="36.5625"
     inkscape:cy="62.8875"
     inkscape:window-width="1920"
     inkscape:window-height="1011"
     inkscape:window-x="0"
     inkscape:window-y="0"
     inkscape:window-maximized="1"
     inkscape:current-layer="svg8" />
  <rect
     style="fill:#173f4f"
     height="130"
     width="130"
     y="0"
     x="0"
     id="rect1" />
  <text
     xml:space="preserve"
     style="text-align:center;text-anchor:middle;fill:#73ba25"
     x="65"
     y="80"
     id="text2"><tspan
       x="65"
       y="80"
       style="font-weight:600;font-size:40px;font-family:'Source Sans Pro';-inkscape-font-specification:'Source Sans Pro Semi-Bold';fill:#73ba25"
       id="tspan2">@@</tspan></text>
  <text
     xml:space="preserve"
     style="text-align:center;text-anchor:middle"
     x="65"
     y="48"
     id="text3"><tspan
       x="65"
       y="48"
       style="font-size:10.66666666px;font-family:'Source Sans Pro';-inkscape-font-specification:'Source Sans Pro';fill:#ffffff"
       id="tspan3">@TOP@</tspan></text>
  <text
     xml:space="preserve"
     style="text-align:center;text-anchor:middle"
     x="65"
     y="36"
     id="text4"><tspan
       x="65"
       y="36"
       style="font-size:10.66666666px;font-family:'Source Sans Pro';-inkscape-font-specification:'Source Sans Pro';fill:#ffffff"
       id="tspan4">@TOPC@</tspan></text>
  <text
     xml:space="preserve"
     style="text-align:center;text-anchor:middle"
     x="65"
     y="94"
     id="text5"><tspan
       x="65"
       y="94"
       style="font-size:10.66666666px;font-family:'Source Sans Pro';-inkscape-font-specification:'Source Sans Pro';fill:#ffffff"
       id="tspan5">@BOTTOM@</tspan></text>
  <text
     xml:space="preserve"
     style="text-align:center;text-anchor:middle"
     x="65"
     y="106"
     id="text6"><tspan
       x="65"
       y="106"
       style="font-size:10.66666666px;font-family:'Source Sans Pro';-inkscape-font-specification:'Source Sans Pro';fill:#ffffff"
       id="tspan6">@BOTTOMC@</tspan></text>
  <text
     xml:space="preserve"
     style="text-align:start;text-anchor:start;fill:#ffffff"
     x="26"
     y="19"
     id="text7"><tspan
       x="26"
       y="19"
       style="font-weight:bold;font-stretch:condensed;font-size:10.66666666px;font-family:'Open Sans Condensed';-inkscape-font-specification:'Open Sans Condensed, Bold Condensed';text-align:start;text-anchor:start;fill:#ffffff"
       id="tspan7">openSUSE Leap ##.#</tspan></text>
  <text
     y="120"
     x="120"
     style="font-size:9.33333px;text-align:end;text-anchor:end"
     xml:space="preserve"
     id="text8"><tspan
       style="font-family:'Source Sans Pro';-inkscape-font-specification:'Source Sans Pro';fill:#ffffff"
       y="120"
       x="120"
       id="tspan8">get.openSUSE.org</tspan></text>
  <path
     d="m 20.015489,10.240515 a 0.39140283,0.39140283 0 0 0 -0.25835,0.113129 l -4.304972,4.304972 a 0.39140283,0.39140283 0 0 0 0,0.553385 l 4.304972,4.304972 a 0.39140283,0.39140283 0 0 0 0.553384,0 l 4.304972,-4.304972 a 0.39140283,0.39140283 0 0 0 0,-0.553385 l -4.304972,-4.304972 a 0.39140283,0.39140283 0 0 0 -0.295055,-0.113129 z m 0.01835,0.943232 3.751588,3.751588 -3.751588,3.751587 -3.751587,-3.751587 z m -4.696333,6.099493 v 0.391361 a 0.39136108,0.39136108 0 0 0 0.114664,0.276703 l 4.304972,4.304972 a 0.39140283,0.39140283 0 0 0 0.553384,0 l 4.304972,-4.304972 a 0.39136108,0.39136108 0 0 0 0.114653,-0.276703 0.39136108,0.39136108 0 0 0 0,-0.01834 v -0.373014 h -0.39136 a 0.39136108,0.39136108 0 0 0 -0.276699,0.114659 l -4.028253,4.028253 -4.028254,-4.028253 a 0.39136108,0.39136108 0 0 0 -0.276707,-0.11313 v -0.0015 z"
     color="#000000"
     color-rendering="auto"
     dominant-baseline="auto"
     fill="#fbc75d"
     image-rendering="auto"
     shape-rendering="auto"
     solid-color="#000000"
     stop-color="#000000"
     style="font-variant-ligatures:normal;font-variant-position:normal;font-variant-caps:normal;font-variant-numeric:normal;font-variant-alternates:normal;font-variant-east-asian:normal;font-feature-settings:normal;font-variation-settings:normal;text-indent:0;text-decoration-line:none;text-decoration-style:solid;text-decoration-color:#000000;text-transform:none;text-orientation:mixed;white-space:normal;shape-padding:0;shape-margin:0;inline-size:0;isolation:auto;mix-blend-mode:normal;fill:#ffffff;stroke-width:0.0521815"
     id="path1-3" />
</svg>
