<?xml version="1.0" encoding="UTF-8" standalone="no"?>
<svg
   viewBox="0 0 600 100"
   preserveAspectRatio="xMinYMin slice"
   version="1.1"
   id="svg5"
   sodipodi:docname="wide-nolabel-outnow.svg"
   inkscape:version="1.4.2 (ebf0e940d0, 2025-05-08)"
   xmlns:inkscape="http://www.inkscape.org/namespaces/inkscape"
   xmlns:sodipodi="http://sodipodi.sourceforge.net/DTD/sodipodi-0.dtd"
   xmlns="http://www.w3.org/2000/svg"
   xmlns:svg="http://www.w3.org/2000/svg">
  <defs
     id="defs5" />
  <sodipodi:namedview
     id="namedview5"
     pagecolor="#ffffff"
     bordercolor="#000000"
     borderopacity="0.25"
     inkscape:showpageshadow="2"
     inkscape:pageopacity="0.0"
     inkscape:pagecheckerboard="0"
     inkscape:deskcolor="#d1d1d1"
     inkscape:zoom="2.0266667"
     inkscape:cx="145.55921"
     inkscape:cy="49.835526"
     inkscape:window-width="1920"
     inkscape:window-height="1011"
     inkscape:window-x="0"
     inkscape:window-y="0"
     inkscape:window-maximized="1"
     inkscape:current-layer="svg5" />
  <rect
     width="600"
     height="100"
     fill="#173f4f"
     id="rect1" />
  <text
     xml:space="preserve"
     style="font-size:21.33333333px;text-align:start;text-anchor:start;fill:#ffffff"
     x="84"
     y="36"
     id="text2"><tspan
       x="84"
       y="36"
       style="font-family:'Open Sans Condensed';-inkscape-font-specification:'Open Sans Condensed, ';fill:#ffffff"
       id="tspan2">openSUSE</tspan></text>
  <text
     xml:space="preserve"
     style="font-size:48px;text-align:start;text-anchor:start"
     x="76"
     y="80"
     id="text3"><tspan
       style="stroke-width:2"
       x="76"
       y="100"
       id="tspan3" /></text>
  <text
     xml:space="preserve"
     style="font-size:21.33333333px;text-align:center;text-anchor:middle"
     x="76"
     y="80"
     id="text4"><tspan
       style="stroke-width:2"
       x="76"
       y="100"
       id="tspan4" /></text>
  <text
     xml:space="preserve"
     style="font-size:21.33333333px;text-align:start;text-anchor:start;fill:#ffffff"
     x="82"
     y="80"
     id="text5"><tspan
       x="82"
       y="80"
       style="font-style:normal;font-variant:normal;font-weight:300;font-stretch:condensed;font-size:48px;font-family:'Open Sans Condensed';-inkscape-font-specification:'Open Sans Condensed, Light Condensed';fill:#ffffff"
       id="tspan5">Leap ##.#</tspan></text>
  <path
     d="M 23.358905,5.141597 A 2.8149859,2.8149859 0 0 0 21.500841,5.9552198 L -9.4607015,36.916754 a 2.8149859,2.8149859 0 0 0 0,3.979983 L 21.500841,71.858273 a 2.8149859,2.8149859 0 0 0 3.979962,0 L 56.442346,40.896737 a 2.8149859,2.8149859 0 0 0 0,-3.979983 L 25.480803,5.9552198 A 2.8149859,2.8149859 0 0 0 23.358754,5.141597 Z M 23.490868,11.925364 50.472462,38.906929 23.49088,65.888506 -3.4906948,38.906929 Z m -33.776217,43.867808 v 2.814693 a 2.8146854,2.8146854 0 0 0 0.8246689,1.990045 L 21.500864,91.55947 a 2.8149859,2.8149859 0 0 0 3.979961,0 L 56.442366,60.59791 a 2.8146854,2.8146854 0 0 0 0.82459,-1.990045 2.8146854,2.8146854 0 0 0 0,-0.131885 v -2.682748 h -2.814678 a 2.8146854,2.8146854 0 0 0 -1.990029,0.824636 L 23.49088,85.589252 -5.4804951,56.617868 a 2.8146854,2.8146854 0 0 0 -1.9900913,-0.813646 v -0.0095 z"
     color="#000000"
     color-rendering="auto"
     dominant-baseline="auto"
     fill="#fbc75d"
     image-rendering="auto"
     shape-rendering="auto"
     solid-color="#000000"
     stop-color="#000000"
     style="font-variant-ligatures:normal;font-variant-position:normal;font-variant-caps:normal;font-variant-numeric:normal;font-variant-alternates:normal;font-variant-east-asian:normal;font-feature-settings:normal;font-variation-settings:normal;text-indent:0;text-decoration-line:none;text-decoration-style:solid;text-decoration-color:#000000;text-transform:none;text-orientation:mixed;white-space:normal;shape-padding:0;shape-margin:0;inline-size:0;isolation:auto;mix-blend-mode:normal;fill:#ffffff;stroke-width:0.37529"
     id="path1-3" />
</svg>
