<?xml version="1.0" encoding="UTF-8" standalone="no"?>
<svg
   viewBox="0 0 600 100"
   preserveAspectRatio="xMinYMin slice"
   version="1.1"
   id="svg5"
   sodipodi:docname="wide-nolabel.svg"
   inkscape:version="1.4.2 (ebf0e940d0, 2025-05-08)"
   xmlns:inkscape="http://www.inkscape.org/namespaces/inkscape"
   xmlns:sodipodi="http://sodipodi.sourceforge.net/DTD/sodipodi-0.dtd"
   xmlns="http://www.w3.org/2000/svg"
   xmlns:svg="http://www.w3.org/2000/svg">
  <defs
     id="defs5" />
  <sodipodi:namedview
     id="namedview5"
     pagecolor="#ffffff"
     bordercolor="#000000"
     borderopacity="0.25"
     inkscape:showpageshadow="2"
     inkscape:pageopacity="0.0"
     inkscape:pagecheckerboard="0"
     inkscape:deskcolor="#d1d1d1"
     inkscape:zoom="2.0266667"
     inkscape:cx="153.45395"
     inkscape:cy="49.835526"
     inkscape:window-width="1920"
     inkscape:window-height="1011"
     inkscape:window-x="0"
     inkscape:window-y="0"
     inkscape:window-maximized="1"
     inkscape:current-layer="svg5" />
  <rect
     width="600"
     height="100"
     fill="#173f4f"
     id="rect1" />
  <text
     xml:space="preserve"
     style="font-size:21.33333333px;text-align:start;text-anchor:start;fill:#ffffff"
     x="84"
     y="36"
     id="text2"><tspan
       x="84"
       y="36"
       style="font-family:'Open Sans Condensed';-inkscape-font-specification:'Open Sans Condensed, ';fill:#ffffff"
       id="tspan2">openSUSE</tspan></text>
  <text
     xml:space="preserve"
     style="font-size:48px;text-align:start;text-anchor:start"
     x="76"
     y="80"
     id="text3"><tspan
       style="stroke-width:2"
       x="76"
       y="100"
       id="tspan3" /></text>
  <text
     xml:space="preserve"
     style="font-size:21.33333333px;text-align:center;text-anchor:middle"
     x="76"
     y="80"
     id="text4"><tspan
       style="stroke-width:2"
       x="76"
       y="100"
       id="tspan4" /></text>
  <text
     xml:space="preserve"
     style="font-size:21.33333333px;text-align:start;text-anchor:start;fill:#ffffff"
     x="82"
     y="80"
     id="text5"><tspan
       x="82"
       y="80"
       style="font-style:normal;font-variant:normal;font-weight:300;font-stretch:condensed;font-size:48px;font-family:'Open Sans Condensed';-inkscape-font-specification:'Open Sans Condensed, Light Condensed';fill:#ffffff"
       id="tspan5">Leap ##.#</tspan></text>
  <path
     d="M 22.046082,5.9968406 A 2.7990655,2.7990655 0 0 0 20.198526,6.8058624 L -10.587898,37.592293 a 2.7990655,2.7990655 0 0 0 0,3.957471 l 30.786424,30.786423 a 2.7990655,2.7990655 0 0 0 3.957452,0 L 54.942417,41.549764 a 2.7990655,2.7990655 0 0 0 0,-3.957471 L 24.155978,6.8058624 A 2.7990655,2.7990655 0 0 0 22.045931,5.9968406 Z M 22.177299,12.742237 49.006296,39.571204 22.17731,66.400194 -4.6516723,39.571204 Z m -33.585194,43.619716 v 2.798777 a 2.7987669,2.7987669 0 0 0 0.82001,1.978794 l 30.786433,30.786448 a 2.7990655,2.7990655 0 0 0 3.957452,0 L 54.942436,61.139524 a 2.7987669,2.7987669 0 0 0 0.819927,-1.978794 2.7987669,2.7987669 0 0 0 0,-0.131147 v -2.667566 h -2.798759 a 2.7987669,2.7987669 0 0 0 -1.978775,0.819971 L 22.17731,85.989514 -6.6302071,57.181988 a 2.7987669,2.7987669 0 0 0 -1.9788325,-0.809045 v -0.01036 z"
     color="#000000"
     color-rendering="auto"
     dominant-baseline="auto"
     fill="#fbc75d"
     image-rendering="auto"
     shape-rendering="auto"
     solid-color="#000000"
     stop-color="#000000"
     style="font-variant-ligatures:normal;font-variant-position:normal;font-variant-caps:normal;font-variant-numeric:normal;font-variant-alternates:normal;font-variant-east-asian:normal;font-feature-settings:normal;font-variation-settings:normal;text-indent:0;text-decoration-line:none;text-decoration-style:solid;text-decoration-color:#000000;text-transform:none;text-orientation:mixed;white-space:normal;shape-padding:0;shape-margin:0;inline-size:0;isolation:auto;mix-blend-mode:normal;fill:#ffffff;stroke-width:0.373168"
     id="path1-3" />
</svg>
